<?xml version="1.0" encoding="UTF-8"?>
<svg xmlns="http://www.w3.org/2000/svg" version="1.1" viewBox="0 0 270 25">
  <!-- Generator: Adobe Illustrator 30.3.0, SVG Export Plug-In . SVG Version: 2.1.3 Build 182)  -->
  <defs>
    <style>
      .st0, .st1 {
        isolation: isolate;
      }

      .st2 {
        fill: #e93200;
      }

      .st2, .st3 {
        stroke: #fe4703;
      }

      .st1 {
        mix-blend-mode: multiply;
      }

      .st1, .st3, .st4 {
        fill: none;
      }

      .st5 {
        fill: #fc6f07;
        fill-opacity: .3;
      }

      .st6 {
        fill: #fff83f;
        stroke: #fff83f;
      }

      .st4 {
        stroke: #e93200;
      }
    </style>
  </defs>
  <g class="st0">
    <g id="Layer_1">
      <rect class="st5" x="13" y="2" width="257" height="20" rx="4" ry="4"/>
      <rect class="st1" x="13" y="2" width="257" height="20" rx="4" ry="4"/>
      <path class="st3" d="M17,2h253"/>
      <path class="st4" d="M17,22h253"/>
      <circle class="st2" cx="12.5" cy="12.5" r="12"/>
      <path class="st6" d="M12.56,5c-3.07,0-5.56,2.46-5.56,5.49,0,4.57,4.95,9.52,5.16,9.73.22.22.57.22.79,0h0c.21-.21,5.16-5.16,5.16-9.73,0-3.03-2.49-5.49-5.56-5.49ZM12.56,12.69c-1.23,0-2.22-.98-2.22-2.2s1-2.2,2.22-2.2,2.22.98,2.22,2.2-.99,2.2-2.22,2.2Z"/>
    </g>
  </g>
</svg>